<mxfile host="app.diagrams.net" modified="2024-03-04T23:54:10.676Z" agent="Mozilla/5.0 (Macintosh; Intel Mac OS X 10_15_7) AppleWebKit/537.36 (KHTML, like Gecko) Chrome/122.0.0.0 Safari/537.36" etag="D6mPoeEBQQRDdteQZLCO" version="24.0.0" type="device">
  <diagram name="Page-1" id="aIBhAeVDCMQJBFkrJ-a0">
    <mxGraphModel dx="1354" dy="1040" grid="0" gridSize="10" guides="1" tooltips="1" connect="1" arrows="1" fold="1" page="0" pageScale="1" pageWidth="850" pageHeight="1100" math="0" shadow="0">
      <root>
        <mxCell id="0" />
        <mxCell id="1" parent="0" />
        <mxCell id="AmQBXvcgKm7e11b5AECc-1" value="foo" style="swimlane;childLayout=stackLayout;horizontal=1;startSize=50;horizontalStack=0;rounded=1;fontSize=14;fontStyle=0;strokeWidth=2;resizeParent=0;resizeLast=1;shadow=0;dashed=0;align=center;arcSize=4;whiteSpace=wrap;html=1;" parent="1" vertex="1">
          <mxGeometry x="-318" y="-27" width="160" height="120" as="geometry" />
        </mxCell>
        <mxCell id="AmQBXvcgKm7e11b5AECc-2" value="+ flip [R]&lt;br&gt;+ flop [U]&lt;div&gt;&lt;br/&gt;&lt;/div&gt;" style="align=left;strokeColor=none;fillColor=none;spacingLeft=4;fontSize=12;verticalAlign=top;resizable=0;rotatable=0;part=1;html=1;" parent="AmQBXvcgKm7e11b5AECc-1" vertex="1">
          <mxGeometry y="50" width="160" height="70" as="geometry" />
        </mxCell>
        <mxCell id="AmQBXvcgKm7e11b5AECc-3" value="bar" style="swimlane;childLayout=stackLayout;horizontal=1;startSize=50;horizontalStack=0;rounded=1;fontSize=14;fontStyle=0;strokeWidth=2;resizeParent=0;resizeLast=1;shadow=0;dashed=0;align=center;arcSize=4;whiteSpace=wrap;html=1;" parent="1" vertex="1">
          <mxGeometry x="346" y="-29" width="160" height="120" as="geometry" />
        </mxCell>
        <mxCell id="AmQBXvcgKm7e11b5AECc-4" value="+ beep [RU]&lt;br&gt;+ bloop [M]&lt;div&gt;&lt;br/&gt;&lt;/div&gt;" style="align=left;strokeColor=none;fillColor=none;spacingLeft=4;fontSize=12;verticalAlign=top;resizable=0;rotatable=0;part=1;html=1;" parent="AmQBXvcgKm7e11b5AECc-3" vertex="1">
          <mxGeometry y="50" width="160" height="70" as="geometry" />
        </mxCell>
        <mxCell id="AmQBXvcgKm7e11b5AECc-5" value="baz" style="swimlane;childLayout=stackLayout;horizontal=1;startSize=50;horizontalStack=0;rounded=1;fontSize=14;fontStyle=0;strokeWidth=2;resizeParent=0;resizeLast=1;shadow=0;dashed=0;align=center;arcSize=4;whiteSpace=wrap;html=1;" parent="1" vertex="1">
          <mxGeometry x="346" y="369" width="160" height="120" as="geometry" />
        </mxCell>
        <mxCell id="AmQBXvcgKm7e11b5AECc-6" value="+ zoop [RC]&lt;br&gt;+ zip&lt;br&gt;+ zap [U]" style="align=left;strokeColor=none;fillColor=none;spacingLeft=4;fontSize=12;verticalAlign=top;resizable=0;rotatable=0;part=1;html=1;" parent="AmQBXvcgKm7e11b5AECc-5" vertex="1">
          <mxGeometry y="50" width="160" height="70" as="geometry" />
        </mxCell>
        <mxCell id="AmQBXvcgKm7e11b5AECc-7" value="qux" style="swimlane;childLayout=stackLayout;horizontal=1;startSize=50;horizontalStack=0;rounded=1;fontSize=14;fontStyle=0;strokeWidth=2;resizeParent=0;resizeLast=1;shadow=0;dashed=0;align=center;arcSize=4;whiteSpace=wrap;html=1;" parent="1" vertex="1">
          <mxGeometry x="-318" y="274" width="160" height="120" as="geometry" />
        </mxCell>
        <mxCell id="AmQBXvcgKm7e11b5AECc-8" value="+ quick [RU]&amp;nbsp;&lt;br&gt;+ quack&lt;br&gt;+ quote" style="align=left;strokeColor=none;fillColor=none;spacingLeft=4;fontSize=12;verticalAlign=top;resizable=0;rotatable=0;part=1;html=1;" parent="AmQBXvcgKm7e11b5AECc-7" vertex="1">
          <mxGeometry y="50" width="160" height="70" as="geometry" />
        </mxCell>
        <mxCell id="AmQBXvcgKm7e11b5AECc-11" style="edgeStyle=none;curved=1;rounded=0;orthogonalLoop=1;jettySize=auto;html=1;entryX=0.5;entryY=0;entryDx=0;entryDy=0;fontSize=12;startSize=8;endSize=8;endArrow=ERmandOne;endFill=0;startArrow=ERzeroToMany;startFill=0;" parent="1" source="AmQBXvcgKm7e11b5AECc-2" target="AmQBXvcgKm7e11b5AECc-7" edge="1">
          <mxGeometry relative="1" as="geometry" />
        </mxCell>
        <mxCell id="AmQBXvcgKm7e11b5AECc-26" value="quaffs/&lt;br&gt;quaffed by" style="edgeLabel;html=1;align=center;verticalAlign=middle;resizable=0;points=[];fontSize=12;" parent="AmQBXvcgKm7e11b5AECc-11" vertex="1" connectable="0">
          <mxGeometry x="-0.0166" y="-1" relative="1" as="geometry">
            <mxPoint as="offset" />
          </mxGeometry>
        </mxCell>
        <mxCell id="AmQBXvcgKm7e11b5AECc-24" style="edgeStyle=none;curved=1;rounded=0;orthogonalLoop=1;jettySize=auto;html=1;entryX=0;entryY=0.5;entryDx=0;entryDy=0;fontSize=12;startSize=8;endSize=8;endArrow=ERmandOne;endFill=0;startArrow=ERzeroToMany;startFill=0;" parent="1" source="AmQBXvcgKm7e11b5AECc-13" target="AmQBXvcgKm7e11b5AECc-3" edge="1">
          <mxGeometry relative="1" as="geometry">
            <Array as="points">
              <mxPoint x="259" y="36" />
            </Array>
          </mxGeometry>
        </mxCell>
        <mxCell id="AmQBXvcgKm7e11b5AECc-27" value="gobbled by&lt;br&gt;gobbles" style="edgeLabel;html=1;align=center;verticalAlign=middle;resizable=0;points=[];fontSize=12;" parent="AmQBXvcgKm7e11b5AECc-24" vertex="1" connectable="0">
          <mxGeometry x="-0.0023" y="9" relative="1" as="geometry">
            <mxPoint as="offset" />
          </mxGeometry>
        </mxCell>
        <mxCell id="AmQBXvcgKm7e11b5AECc-13" value="foo_bar" style="swimlane;childLayout=stackLayout;horizontal=1;startSize=50;horizontalStack=0;rounded=1;fontSize=14;fontStyle=0;strokeWidth=2;resizeParent=0;resizeLast=1;shadow=0;dashed=0;align=center;arcSize=4;whiteSpace=wrap;html=1;" parent="1" vertex="1">
          <mxGeometry x="14" y="-24" width="160" height="120" as="geometry" />
        </mxCell>
        <mxCell id="AmQBXvcgKm7e11b5AECc-20" style="edgeStyle=none;curved=0;rounded=0;orthogonalLoop=1;jettySize=auto;html=1;fontSize=12;startSize=8;endSize=8;endArrow=ERmandOne;endFill=0;startArrow=ERzeroToMany;startFill=0;entryX=0;entryY=1;entryDx=0;entryDy=0;" parent="1" source="AmQBXvcgKm7e11b5AECc-15" target="AmQBXvcgKm7e11b5AECc-4" edge="1">
          <mxGeometry relative="1" as="geometry">
            <Array as="points" />
          </mxGeometry>
        </mxCell>
        <mxCell id="AmQBXvcgKm7e11b5AECc-28" value="guzzles/&lt;br&gt;guzzled by" style="edgeLabel;html=1;align=center;verticalAlign=middle;resizable=0;points=[];fontSize=12;" parent="AmQBXvcgKm7e11b5AECc-20" vertex="1" connectable="0">
          <mxGeometry x="0.2062" y="-1" relative="1" as="geometry">
            <mxPoint x="-12" y="10" as="offset" />
          </mxGeometry>
        </mxCell>
        <mxCell id="AmQBXvcgKm7e11b5AECc-15" value="bar_baz" style="swimlane;childLayout=stackLayout;horizontal=1;startSize=50;horizontalStack=0;rounded=1;fontSize=14;fontStyle=0;strokeWidth=2;resizeParent=0;resizeLast=1;shadow=0;dashed=0;align=center;arcSize=4;whiteSpace=wrap;html=1;" parent="1" vertex="1">
          <mxGeometry x="22" y="179" width="160" height="120" as="geometry" />
        </mxCell>
        <mxCell id="AmQBXvcgKm7e11b5AECc-16" value="+ guzzle-amount [R]&lt;br style=&quot;border-color: var(--border-color);&quot;&gt;+ guzzle-date [R]" style="align=left;strokeColor=none;fillColor=none;spacingLeft=4;fontSize=12;verticalAlign=top;resizable=0;rotatable=0;part=1;html=1;" parent="AmQBXvcgKm7e11b5AECc-15" vertex="1">
          <mxGeometry y="50" width="160" height="70" as="geometry" />
        </mxCell>
        <mxCell id="AmQBXvcgKm7e11b5AECc-21" style="edgeStyle=none;curved=0;rounded=0;orthogonalLoop=1;jettySize=auto;html=1;fontSize=12;startSize=8;endSize=8;endArrow=ERmandOne;endFill=0;startArrow=ERzeroToMany;startFill=0;exitX=1;exitY=1;exitDx=0;exitDy=0;entryX=0;entryY=0;entryDx=0;entryDy=0;" parent="1" source="AmQBXvcgKm7e11b5AECc-16" target="AmQBXvcgKm7e11b5AECc-5" edge="1">
          <mxGeometry relative="1" as="geometry">
            <Array as="points" />
          </mxGeometry>
        </mxCell>
        <mxCell id="AmQBXvcgKm7e11b5AECc-29" value="guzzled by/&lt;br&gt;guzzles" style="edgeLabel;html=1;align=center;verticalAlign=middle;resizable=0;points=[];fontSize=12;" parent="AmQBXvcgKm7e11b5AECc-21" vertex="1" connectable="0">
          <mxGeometry x="0.0064" y="-2" relative="1" as="geometry">
            <mxPoint as="offset" />
          </mxGeometry>
        </mxCell>
        <mxCell id="AmQBXvcgKm7e11b5AECc-22" style="edgeStyle=none;curved=1;rounded=0;orthogonalLoop=1;jettySize=auto;html=1;entryX=1;entryY=0.25;entryDx=0;entryDy=0;fontSize=12;startSize=8;endSize=8;startArrow=ERoneToMany;startFill=0;endArrow=ERmandOne;endFill=0;" parent="1" source="AmQBXvcgKm7e11b5AECc-13" target="AmQBXvcgKm7e11b5AECc-2" edge="1">
          <mxGeometry relative="1" as="geometry">
            <Array as="points" />
          </mxGeometry>
        </mxCell>
        <mxCell id="AmQBXvcgKm7e11b5AECc-25" value="gobbles/&lt;br&gt;gobbled by" style="edgeLabel;html=1;align=center;verticalAlign=middle;resizable=0;points=[];fontSize=12;" parent="AmQBXvcgKm7e11b5AECc-22" vertex="1" connectable="0">
          <mxGeometry x="0.1331" y="-7" relative="1" as="geometry">
            <mxPoint as="offset" />
          </mxGeometry>
        </mxCell>
        <mxCell id="AmQBXvcgKm7e11b5AECc-30" value="&lt;h1&gt;&lt;b&gt;vchand03&lt;/b&gt;&lt;/h1&gt;" style="text;html=1;align=center;verticalAlign=middle;resizable=0;points=[];autosize=1;strokeColor=none;fillColor=none;fontSize=16;" parent="1" vertex="1">
          <mxGeometry x="-90" y="363" width="166" height="93" as="geometry" />
        </mxCell>
      </root>
    </mxGraphModel>
  </diagram>
</mxfile>
